<?xml version="1.0" encoding="utf-8"?>
<svg viewBox="504.729 350.76 195.115 168.305" width="195.115" height="168.305" xmlns="http://www.w3.org/2000/svg">
  <defs>
    <clipPath id="clip-1">
      <rect x="504.171" y="431.934" width="78.195" height="47.662" style="fill: rgb(216, 216, 216); clip-path: url(#clip-0);" transform="matrix(0.707107, -0.707107, 0.707107, 0.707107, -93.52478, 466.99823)"/>
    </clipPath>
    <clipPath id="clip-0">
      <rect x="504.171" y="431.934" width="78.195" height="47.662" style="fill: rgb(216, 216, 216);" transform="matrix(0, 1, -1, 0, 983.762329, -101.721489)"/>
    </clipPath>
  </defs>
  <g>
    <path d="M 577.153 350.76 H 624.815 V 387.251 H 577.153 V 350.76 Z"/>
    <path d="M 504.171 431.934 H 582.366 V 479.596 H 504.171 V 431.934 Z" transform="matrix(0.707107, -0.707107, 0.707107, 0.707107, -157.197174, 531.044006)"/>
    <path d="M 592.792 490.767 L 614.389 490.767 L 641.199 519.065 L 564.493 519.065 L 592.792 490.767 Z"/>
    <path d="M 504.171 431.934 H 582.366 V 479.596 H 504.171 V 431.934 Z" transform="matrix(0.707107, 0.707107, -0.707107, 0.707107, 593.473145, -237.626724)"/>
    <path d="M 530.98 404.379 H 683.646 V 457.998 H 530.98 V 404.379 Z" style="clip-path: url(#clip-1);"/>
  </g>
</svg>